<?xml version="1.0" standalone="no"?>
<!DOCTYPE svg PUBLIC "-//W3C//DTD SVG 20010904//EN"
 "http://www.w3.org/TR/2001/REC-SVG-20010904/DTD/svg10.dtd">
<svg version="1.0" xmlns="http://www.w3.org/2000/svg"
 width="512.000000pt" height="512.000000pt" viewBox="0 0 512.000000 512.000000"
 preserveAspectRatio="xMidYMid meet">
<g transform="translate(0.000000,512.000000) scale(0.100000,-0.100000)"
fill="#000000" stroke="none">
<path d="M2397 4474 c-1 -1 -29 -5 -62 -8 -273 -25 -590 -143 -846 -314 -459
-307 -772 -818 -836 -1364 -9 -74 -9 -395 0 -453 15 -103 28 -173 36 -203 5
-18 10 -33 9 -35 -1 -7 26 -101 47 -164 40 -118 80 -203 179 -378 92 -163 301
-392 483 -529 245 -184 567 -321 848 -361 28 -4 59 -10 70 -12 53 -12 388 -10
484 3 394 53 755 222 1055 494 322 293 535 703 601 1158 19 135 16 395 -6 540
-74 479 -317 901 -694 1207 -277 225 -620 369 -985 414 -63 8 -376 12 -383 5z
m339 -1218 c261 -68 462 -273 525 -536 19 -80 17 -262 -5 -335 -75 -259 -255
-444 -506 -520 -84 -26 -267 -28 -360 -4 -247 63 -431 235 -516 484 -24 70
-28 95 -28 205 0 223 65 381 219 533 88 85 249 168 360 184 22 3 42 7 44 9 10
10 212 -5 267 -20z"/>
</g>
</svg>
